<svg xmlns="http://www.w3.org/2000/svg" width="1200" height="1236" viewBox="0 0 1200 1236" role="img" aria-labelledby="title desc">
<title id="title">Every mode combination</title>
<desc id="desc">Codex: 41.7K tokens, Baseline, quality 3/3; Codex + Caveman: 60.4K tokens, 44.67% more, quality 3/3; Codex + RTK: 42.0K tokens, 0.68% more, quality 3/3; Codex + RTK + Caveman: 61.6K tokens, 47.63% more, quality 3/3; Safe: 39.1K tokens, 6.24% fewer, quality 3/3; Safe + Caveman: 58.3K tokens, 39.74% more, quality 3/3; Safe + RTK: 38.1K tokens, 8.65% fewer, quality 3/3; Safe + RTK + Caveman: 57.8K tokens, 38.46% more, quality 3/3; Max: 33.8K tokens, 18.93% fewer, quality 3/3; Max + Caveman: 39.3K tokens, 5.72% fewer, quality 3/3; Max + RTK: 33.7K tokens, 19.14% fewer, quality 3/3; Max + RTK + Caveman: 39.7K tokens, 4.95% fewer, quality 3/3</desc>
<style>
text{font-family:Arial,Helvetica,sans-serif;fill:#171713}
.mono{font-family:Consolas,'Liberation Mono',monospace}
.head{font-size:32px;font-weight:800;letter-spacing:-1px;fill:#fffef8}
.sub{font-size:15px;fill:#d7d4c8}
.col{font-size:11px;font-weight:700;letter-spacing:1px;fill:#68675f}
.label{font-size:16px;font-weight:700}
.value{font-size:15px;font-weight:700}
.small{font-size:13px}
.foot{font-size:12px;fill:#68675f}
</style>
<rect width="1200" height="1236" fill="#f4f2e9"/>
<rect width="1200" height="130" fill="#171713"/>
<text class="head" x="48" y="58">Every mode combination</text>
<text class="sub" x="48" y="91">12 configurations × 3 runs · one fixed task · GPT-5.6 Sol low</text>
<text class="col mono" x="48" y="163">CONFIGURATION</text>
<text class="col mono" x="330" y="163">PROVIDER TOKENS · SHORTER IS BETTER</text>
<text class="col mono" x="792" y="163">TOTAL / MEAN</text>
<text class="col mono" x="945" y="163">VS CODEX</text>
<text class="col mono" x="1090" y="163">QUALITY</text>
<rect x="0" y="182" width="1200" height="82" fill="#fffef8"/>
<line x1="48" y1="264" x2="1152" y2="264" stroke="#d7d4c8"/>
<text class="label" x="48" y="231">Codex</text>
<rect x="330" y="212" width="440" height="21" rx="3" fill="#e4e1d7"/>
<line x1="628.0" y1="206" x2="628.0" y2="240" stroke="#171713" stroke-width="1" opacity=".35"/>
<rect x="330" y="212" width="298.0" height="21" rx="3" fill="#171713"/>
<text class="value mono" x="792" y="231">41.7K</text>
<text class="small mono" x="945" y="231">Baseline</text>
<text class="value mono" x="1090" y="231">3/3</text>
<rect x="0" y="264" width="1200" height="82" fill="#f4f2e9"/>
<line x1="48" y1="346" x2="1152" y2="346" stroke="#d7d4c8"/>
<text class="label" x="48" y="313">Codex + Caveman</text>
<rect x="330" y="294" width="440" height="21" rx="3" fill="#e4e1d7"/>
<line x1="628.0" y1="288" x2="628.0" y2="322" stroke="#171713" stroke-width="1" opacity=".35"/>
<rect x="330" y="294" width="431.2" height="21" rx="3" fill="#bba8ff"/>
<text class="value mono" x="792" y="313">60.4K</text>
<text class="small mono" x="945" y="313">44.67% more</text>
<text class="value mono" x="1090" y="313">3/3</text>
<rect x="0" y="346" width="1200" height="82" fill="#fffef8"/>
<line x1="48" y1="428" x2="1152" y2="428" stroke="#d7d4c8"/>
<text class="label" x="48" y="395">Codex + RTK</text>
<rect x="330" y="376" width="440" height="21" rx="3" fill="#e4e1d7"/>
<line x1="628.0" y1="370" x2="628.0" y2="404" stroke="#171713" stroke-width="1" opacity=".35"/>
<rect x="330" y="376" width="300.1" height="21" rx="3" fill="#bba8ff"/>
<text class="value mono" x="792" y="395">42.0K</text>
<text class="small mono" x="945" y="395">0.68% more</text>
<text class="value mono" x="1090" y="395">3/3</text>
<rect x="0" y="428" width="1200" height="82" fill="#f4f2e9"/>
<line x1="48" y1="510" x2="1152" y2="510" stroke="#d7d4c8"/>
<text class="label" x="48" y="477">Codex + RTK + Caveman</text>
<rect x="330" y="458" width="440" height="21" rx="3" fill="#e4e1d7"/>
<line x1="628.0" y1="452" x2="628.0" y2="486" stroke="#171713" stroke-width="1" opacity=".35"/>
<rect x="330" y="458" width="440.0" height="21" rx="3" fill="#bba8ff"/>
<text class="value mono" x="792" y="477">61.6K</text>
<text class="small mono" x="945" y="477">47.63% more</text>
<text class="value mono" x="1090" y="477">3/3</text>
<rect x="0" y="510" width="1200" height="82" fill="#efffc0"/>
<line x1="48" y1="592" x2="1152" y2="592" stroke="#d7d4c8"/>
<text class="label" x="48" y="559">Safe</text>
<rect x="330" y="540" width="440" height="21" rx="3" fill="#e4e1d7"/>
<line x1="628.0" y1="534" x2="628.0" y2="568" stroke="#171713" stroke-width="1" opacity=".35"/>
<rect x="330" y="540" width="279.4" height="21" rx="3" fill="#ff7759"/>
<text class="value mono" x="792" y="559">39.1K</text>
<text class="small mono" x="945" y="559">6.24% fewer</text>
<text class="value mono" x="1090" y="559">3/3</text>
<rect x="0" y="592" width="1200" height="82" fill="#efffc0"/>
<line x1="48" y1="674" x2="1152" y2="674" stroke="#d7d4c8"/>
<text class="label" x="48" y="641">Safe + Caveman</text>
<rect x="330" y="622" width="440" height="21" rx="3" fill="#e4e1d7"/>
<line x1="628.0" y1="616" x2="628.0" y2="650" stroke="#171713" stroke-width="1" opacity=".35"/>
<rect x="330" y="622" width="416.5" height="21" rx="3" fill="#ff7759"/>
<text class="value mono" x="792" y="641">58.3K</text>
<text class="small mono" x="945" y="641">39.74% more</text>
<text class="value mono" x="1090" y="641">3/3</text>
<rect x="0" y="674" width="1200" height="82" fill="#efffc0"/>
<line x1="48" y1="756" x2="1152" y2="756" stroke="#d7d4c8"/>
<text class="label" x="48" y="723">Safe + RTK</text>
<rect x="330" y="704" width="440" height="21" rx="3" fill="#e4e1d7"/>
<line x1="628.0" y1="698" x2="628.0" y2="732" stroke="#171713" stroke-width="1" opacity=".35"/>
<rect x="330" y="704" width="272.3" height="21" rx="3" fill="#ff7759"/>
<text class="value mono" x="792" y="723">38.1K</text>
<text class="small mono" x="945" y="723">8.65% fewer</text>
<text class="value mono" x="1090" y="723">3/3</text>
<rect x="0" y="756" width="1200" height="82" fill="#efffc0"/>
<line x1="48" y1="838" x2="1152" y2="838" stroke="#d7d4c8"/>
<text class="label" x="48" y="805">Safe + RTK + Caveman</text>
<rect x="330" y="786" width="440" height="21" rx="3" fill="#e4e1d7"/>
<line x1="628.0" y1="780" x2="628.0" y2="814" stroke="#171713" stroke-width="1" opacity=".35"/>
<rect x="330" y="786" width="412.7" height="21" rx="3" fill="#ff7759"/>
<text class="value mono" x="792" y="805">57.8K</text>
<text class="small mono" x="945" y="805">38.46% more</text>
<text class="value mono" x="1090" y="805">3/3</text>
<rect x="0" y="838" width="1200" height="82" fill="#efffc0"/>
<line x1="48" y1="920" x2="1152" y2="920" stroke="#d7d4c8"/>
<text class="label" x="48" y="887">Max</text>
<rect x="330" y="868" width="440" height="21" rx="3" fill="#e4e1d7"/>
<line x1="628.0" y1="862" x2="628.0" y2="896" stroke="#171713" stroke-width="1" opacity=".35"/>
<rect x="330" y="868" width="241.6" height="21" rx="3" fill="#ff7759"/>
<text class="value mono" x="792" y="887">33.8K</text>
<text class="small mono" x="945" y="887">18.93% fewer</text>
<text class="value mono" x="1090" y="887">3/3</text>
<rect x="0" y="920" width="1200" height="82" fill="#efffc0"/>
<line x1="48" y1="1002" x2="1152" y2="1002" stroke="#d7d4c8"/>
<text class="label" x="48" y="969">Max + Caveman</text>
<rect x="330" y="950" width="440" height="21" rx="3" fill="#e4e1d7"/>
<line x1="628.0" y1="944" x2="628.0" y2="978" stroke="#171713" stroke-width="1" opacity=".35"/>
<rect x="330" y="950" width="281.0" height="21" rx="3" fill="#ff7759"/>
<text class="value mono" x="792" y="969">39.3K</text>
<text class="small mono" x="945" y="969">5.72% fewer</text>
<text class="value mono" x="1090" y="969">3/3</text>
<rect x="0" y="1002" width="1200" height="82" fill="#efffc0"/>
<line x1="48" y1="1084" x2="1152" y2="1084" stroke="#d7d4c8"/>
<text class="label" x="48" y="1051">Max + RTK</text>
<rect x="330" y="1032" width="440" height="21" rx="3" fill="#e4e1d7"/>
<line x1="628.0" y1="1026" x2="628.0" y2="1060" stroke="#171713" stroke-width="1" opacity=".35"/>
<rect x="330" y="1032" width="241.0" height="21" rx="3" fill="#ff7759"/>
<text class="value mono" x="792" y="1051">33.7K</text>
<text class="small mono" x="945" y="1051">19.14% fewer</text>
<text class="value mono" x="1090" y="1051">3/3</text>
<rect x="0" y="1084" width="1200" height="82" fill="#efffc0"/>
<line x1="48" y1="1166" x2="1152" y2="1166" stroke="#d7d4c8"/>
<text class="label" x="48" y="1133">Max + RTK + Caveman</text>
<rect x="330" y="1114" width="440" height="21" rx="3" fill="#e4e1d7"/>
<line x1="628.0" y1="1108" x2="628.0" y2="1142" stroke="#171713" stroke-width="1" opacity=".35"/>
<rect x="330" y="1114" width="283.3" height="21" rx="3" fill="#ff7759"/>
<text class="value mono" x="792" y="1133">39.7K</text>
<text class="small mono" x="945" y="1133">4.95% fewer</text>
<text class="value mono" x="1090" y="1133">3/3</text>
<text class="foot mono" x="48" y="1206">Every run passed. Max + RTK was lowest at 19.14% fewer provider tokens.</text>
</svg>
