<svg xmlns="http://www.w3.org/2000/svg" width="960" height="560" viewBox="0 0 960 560" role="img">
  <title>CodexZero package download history</title>
  <desc>520 release package downloads as of 2026-09-27T12:09:46Z. Dashed launch-period values are estimated from release timing and repository traffic. Solid values are observed daily totals. Checksum downloads are excluded.</desc>
  <rect width="960" height="560" rx="12" fill="#ffffff"/>
  <g font-family="-apple-system,BlinkMacSystemFont,Segoe UI,sans-serif" fill="#24292f">
    <text x="480.0" y="47" text-anchor="middle" font-size="25" font-weight="650">Download history</text>
    <text x="930" y="48" text-anchor="end" font-size="19" font-weight="650">520 total</text>
    <line x1="92" y1="450.0" x2="930" y2="450.0" stroke="#e1e4e8" stroke-width="1"/><text x="78" y="455.0" text-anchor="end" fill="#24292f" font-size="14">0</text><line x1="92" y1="336.0" x2="930" y2="336.0" stroke="#e1e4e8" stroke-width="1"/><text x="78" y="341.0" text-anchor="end" fill="#24292f" font-size="14">200</text><line x1="92" y1="222.0" x2="930" y2="222.0" stroke="#e1e4e8" stroke-width="1"/><text x="78" y="227.0" text-anchor="end" fill="#24292f" font-size="14">400</text><line x1="92" y1="108.0" x2="930" y2="108.0" stroke="#e1e4e8" stroke-width="1"/><text x="78" y="113.0" text-anchor="end" fill="#24292f" font-size="14">600</text>
    <line x1="92" y1="108" x2="92" y2="450" stroke="#24292f" stroke-width="2"/>
    <line x1="92" y1="450" x2="930" y2="450" stroke="#24292f" stroke-width="2"/>
    <path d="M 92.0 450.0 L 104.7 412.4 L 117.4 391.3 L 130.1 378.2 L 142.8 375.3 L 155.5 359.4 L 168.2 345.1 L 180.9 336.6" fill="none" stroke="#f0442e" stroke-width="3.5" stroke-dasharray="9 7" stroke-linecap="round" stroke-linejoin="round"/><path d="M 180.9 336.6 L 193.6 330.3 L 206.3 322.9 L 219.0 321.2 L 231.7 318.3 L 244.4 318.3 L 257.1 318.3 L 269.8 317.8 L 282.5 317.8 L 295.2 312.6 L 307.8 312.1 L 320.5 310.9 L 333.2 310.9 L 345.9 310.4 L 358.6 310.4 L 371.3 310.4 L 384.0 309.2 L 396.7 309.2 L 409.4 308.6 L 422.1 308.6 L 434.8 308.1 L 447.5 306.4 L 460.2 305.2 L 472.9 304.1 L 485.6 304.1 L 498.3 302.9 L 511.0 302.9 L 523.7 301.8 L 536.4 301.8 L 549.1 301.2 L 561.8 301.2 L 574.5 300.7 L 587.2 300.1 L 599.9 300.1 L 612.6 299.5 L 625.3 298.9 L 638.0 296.7 L 650.7 296.7 L 663.4 296.1 L 676.1 292.7 L 688.8 290.4 L 701.5 289.8 L 714.2 289.3 L 726.8 288.1 L 739.5 288.1 L 752.2 287.0 L 764.9 285.3 L 777.6 285.3 L 790.3 284.7 L 803.0 284.7 L 815.7 284.7 L 828.4 284.7 L 841.1 284.1 L 853.8 280.7 L 866.5 230.0 L 879.2 203.8 L 891.9 186.7 L 904.6 183.2 L 917.3 164.4 L 930.0 153.6" fill="none" stroke="#f0442e" stroke-width="4" stroke-linecap="round" stroke-linejoin="round"/>
    <circle cx="180.9" cy="336.6" r="5" fill="#ffffff" stroke="#f0442e" stroke-width="3"/>
    <circle cx="930.0" cy="153.6" r="5" fill="#f0442e" stroke="#ffffff" stroke-width="2"/>
    <line x1="92.0" y1="450" x2="92.0" y2="457" stroke="#24292f" stroke-width="1.5"/><text x="92.0" y="478" text-anchor="middle" fill="#24292f" font-size="13">Jul 2026</text><line x1="231.7" y1="450" x2="231.7" y2="457" stroke="#24292f" stroke-width="1.5"/><text x="231.7" y="478" text-anchor="middle" fill="#24292f" font-size="13">Aug 2026</text><line x1="371.3" y1="450" x2="371.3" y2="457" stroke="#24292f" stroke-width="1.5"/><text x="371.3" y="478" text-anchor="middle" fill="#24292f" font-size="13">Aug 2026</text><line x1="511.0" y1="450" x2="511.0" y2="457" stroke="#24292f" stroke-width="1.5"/><text x="511.0" y="478" text-anchor="middle" fill="#24292f" font-size="13">Aug 2026</text><line x1="650.7" y1="450" x2="650.7" y2="457" stroke="#24292f" stroke-width="1.5"/><text x="650.7" y="478" text-anchor="middle" fill="#24292f" font-size="13">Sep 2026</text><line x1="790.3" y1="450" x2="790.3" y2="457" stroke="#24292f" stroke-width="1.5"/><text x="790.3" y="478" text-anchor="middle" fill="#24292f" font-size="13">Sep 2026</text><line x1="930.0" y1="450" x2="930.0" y2="457" stroke="#24292f" stroke-width="1.5"/><text x="930.0" y="478" text-anchor="middle" fill="#24292f" font-size="13">Sep 2026</text>
    <text x="511.0" y="530" text-anchor="middle" font-size="15">Date</text>
    <text x="25" y="279.0" text-anchor="middle" font-size="15" transform="rotate(-90 25 279.0)">Package downloads</text>
    <g>
      <rect x="110" y="125" width="292" height="76" rx="5" fill="#ffffff" stroke="#24292f" stroke-width="1.5"/>
      <rect x="125" y="141" width="11" height="11" rx="2" fill="#f0442e"/>
      <text x="146" y="152" font-size="14" font-weight="600">Retro2512/CodexZero</text>
      <line x1="125" y1="176" x2="164" y2="176" stroke="#f0442e" stroke-width="3" stroke-dasharray="8 6"/>
      <text x="172" y="181" font-size="13">Estimated</text>
      <line x1="266" y1="176" x2="305" y2="176" stroke="#f0442e" stroke-width="3"/>
      <text x="313" y="181" font-size="13">Observed</text>
    </g>
  </g>
</svg>
