<svg xmlns="http://www.w3.org/2000/svg" width="960" height="560" viewBox="0 0 960 560" role="img">
  <title>CodexZero package download history</title>
  <desc>594 release package downloads as of 2026-10-03T11:46:22Z. Dashed launch-period values are estimated from release timing and repository traffic. Solid values are observed daily totals. Checksum downloads are excluded.</desc>
  <rect width="960" height="560" rx="12" fill="#ffffff"/>
  <g font-family="-apple-system,BlinkMacSystemFont,Segoe UI,sans-serif" fill="#24292f">
    <text x="480.0" y="47" text-anchor="middle" font-size="25" font-weight="650">Download history</text>
    <text x="930" y="48" text-anchor="end" font-size="19" font-weight="650">594 total</text>
    <line x1="92" y1="450.0" x2="930" y2="450.0" stroke="#e1e4e8" stroke-width="1"/><text x="78" y="455.0" text-anchor="end" fill="#24292f" font-size="14">0</text><line x1="92" y1="336.0" x2="930" y2="336.0" stroke="#e1e4e8" stroke-width="1"/><text x="78" y="341.0" text-anchor="end" fill="#24292f" font-size="14">200</text><line x1="92" y1="222.0" x2="930" y2="222.0" stroke="#e1e4e8" stroke-width="1"/><text x="78" y="227.0" text-anchor="end" fill="#24292f" font-size="14">400</text><line x1="92" y1="108.0" x2="930" y2="108.0" stroke="#e1e4e8" stroke-width="1"/><text x="78" y="113.0" text-anchor="end" fill="#24292f" font-size="14">600</text>
    <line x1="92" y1="108" x2="92" y2="450" stroke="#24292f" stroke-width="2"/>
    <line x1="92" y1="450" x2="930" y2="450" stroke="#24292f" stroke-width="2"/>
    <path d="M 92.0 450.0 L 103.6 412.4 L 115.3 391.3 L 126.9 378.2 L 138.6 375.3 L 150.2 359.4 L 161.8 345.1 L 173.5 336.6" fill="none" stroke="#f0442e" stroke-width="3.5" stroke-dasharray="9 7" stroke-linecap="round" stroke-linejoin="round"/><path d="M 173.5 336.6 L 185.1 330.3 L 196.8 322.9 L 208.4 321.2 L 220.0 318.3 L 231.7 318.3 L 243.3 318.3 L 254.9 317.8 L 266.6 317.8 L 278.2 312.6 L 289.9 312.1 L 301.5 310.9 L 313.1 310.9 L 324.8 310.4 L 336.4 310.4 L 348.1 310.4 L 359.7 309.2 L 371.3 309.2 L 383.0 308.6 L 394.6 308.6 L 406.2 308.1 L 417.9 306.4 L 429.5 305.2 L 441.2 304.1 L 452.8 304.1 L 464.4 302.9 L 476.1 302.9 L 487.7 301.8 L 499.4 301.8 L 511.0 301.2 L 522.6 301.2 L 534.3 300.7 L 545.9 300.1 L 557.6 300.1 L 569.2 299.5 L 580.8 298.9 L 592.5 296.7 L 604.1 296.7 L 615.8 296.1 L 627.4 292.7 L 639.0 290.4 L 650.7 289.8 L 662.3 289.3 L 673.9 288.1 L 685.6 288.1 L 697.2 287.0 L 708.9 285.3 L 720.5 285.3 L 732.1 284.7 L 743.8 284.7 L 755.4 284.7 L 767.1 284.7 L 778.7 284.1 L 790.3 280.7 L 802.0 230.0 L 813.6 203.8 L 825.2 186.7 L 836.9 183.2 L 848.5 164.4 L 860.2 153.6 L 871.8 146.2 L 883.4 140.5 L 895.1 137.6 L 906.7 117.1 L 918.4 116.6 L 930.0 111.4" fill="none" stroke="#f0442e" stroke-width="4" stroke-linecap="round" stroke-linejoin="round"/>
    <circle cx="173.5" cy="336.6" r="5" fill="#ffffff" stroke="#f0442e" stroke-width="3"/>
    <circle cx="930.0" cy="111.4" r="5" fill="#f0442e" stroke="#ffffff" stroke-width="2"/>
    <line x1="92.0" y1="450" x2="92.0" y2="457" stroke="#24292f" stroke-width="1.5"/><text x="92.0" y="478" text-anchor="middle" fill="#24292f" font-size="13">Jul 2026</text><line x1="231.7" y1="450" x2="231.7" y2="457" stroke="#24292f" stroke-width="1.5"/><text x="231.7" y="478" text-anchor="middle" fill="#24292f" font-size="13">Aug 2026</text><line x1="371.3" y1="450" x2="371.3" y2="457" stroke="#24292f" stroke-width="1.5"/><text x="371.3" y="478" text-anchor="middle" fill="#24292f" font-size="13">Aug 2026</text><line x1="511.0" y1="450" x2="511.0" y2="457" stroke="#24292f" stroke-width="1.5"/><text x="511.0" y="478" text-anchor="middle" fill="#24292f" font-size="13">Aug 2026</text><line x1="650.7" y1="450" x2="650.7" y2="457" stroke="#24292f" stroke-width="1.5"/><text x="650.7" y="478" text-anchor="middle" fill="#24292f" font-size="13">Sep 2026</text><line x1="790.3" y1="450" x2="790.3" y2="457" stroke="#24292f" stroke-width="1.5"/><text x="790.3" y="478" text-anchor="middle" fill="#24292f" font-size="13">Sep 2026</text><line x1="930.0" y1="450" x2="930.0" y2="457" stroke="#24292f" stroke-width="1.5"/><text x="930.0" y="478" text-anchor="middle" fill="#24292f" font-size="13">Oct 2026</text>
    <text x="511.0" y="530" text-anchor="middle" font-size="15">Date</text>
    <text x="25" y="279.0" text-anchor="middle" font-size="15" transform="rotate(-90 25 279.0)">Package downloads</text>
    <g>
      <rect x="110" y="125" width="292" height="76" rx="5" fill="#ffffff" stroke="#24292f" stroke-width="1.5"/>
      <rect x="125" y="141" width="11" height="11" rx="2" fill="#f0442e"/>
      <text x="146" y="152" font-size="14" font-weight="600">Retro2512/CodexZero</text>
      <line x1="125" y1="176" x2="164" y2="176" stroke="#f0442e" stroke-width="3" stroke-dasharray="8 6"/>
      <text x="172" y="181" font-size="13">Estimated</text>
      <line x1="266" y1="176" x2="305" y2="176" stroke="#f0442e" stroke-width="3"/>
      <text x="313" y="181" font-size="13">Observed</text>
    </g>
  </g>
</svg>
