<svg xmlns="http://www.w3.org/2000/svg" width="960" height="560" viewBox="0 0 960 560" role="img">
  <title>CodexZero package download history</title>
  <desc>258 release package downloads as of 2026-08-24T07:31:06Z. Dashed launch-period values are estimated from release timing and repository traffic. Solid values are observed daily totals. Checksum downloads are excluded.</desc>
  <rect width="960" height="560" rx="12" fill="#ffffff"/>
  <g font-family="-apple-system,BlinkMacSystemFont,Segoe UI,sans-serif" fill="#24292f">
    <text x="480.0" y="47" text-anchor="middle" font-size="25" font-weight="650">Download history</text>
    <text x="930" y="48" text-anchor="end" font-size="19" font-weight="650">258 total</text>
    <line x1="92" y1="450.0" x2="930" y2="450.0" stroke="#e1e4e8" stroke-width="1"/><text x="78" y="455.0" text-anchor="end" fill="#24292f" font-size="14">0</text><line x1="92" y1="336.0" x2="930" y2="336.0" stroke="#e1e4e8" stroke-width="1"/><text x="78" y="341.0" text-anchor="end" fill="#24292f" font-size="14">100</text><line x1="92" y1="222.0" x2="930" y2="222.0" stroke="#e1e4e8" stroke-width="1"/><text x="78" y="227.0" text-anchor="end" fill="#24292f" font-size="14">200</text><line x1="92" y1="108.0" x2="930" y2="108.0" stroke="#e1e4e8" stroke-width="1"/><text x="78" y="113.0" text-anchor="end" fill="#24292f" font-size="14">300</text>
    <line x1="92" y1="108" x2="92" y2="450" stroke="#24292f" stroke-width="2"/>
    <line x1="92" y1="450" x2="930" y2="450" stroke="#24292f" stroke-width="2"/>
    <path d="M 92.0 450.0 L 118.2 374.8 L 144.4 332.6 L 170.6 306.4 L 196.8 300.7 L 222.9 268.7 L 249.1 240.2 L 275.3 223.1" fill="none" stroke="#f0442e" stroke-width="3.5" stroke-dasharray="9 7" stroke-linecap="round" stroke-linejoin="round"/><path d="M 275.3 223.1 L 301.5 210.6 L 327.7 195.8 L 353.9 192.4 L 380.1 186.7 L 406.2 186.7 L 432.4 186.7 L 458.6 185.5 L 484.8 185.5 L 511.0 175.3 L 537.2 174.1 L 563.4 171.8 L 589.6 171.8 L 615.8 170.7 L 641.9 170.7 L 668.1 170.7 L 694.3 168.4 L 720.5 168.4 L 746.7 167.3 L 772.9 167.3 L 799.1 166.1 L 825.2 162.7 L 851.4 160.4 L 877.6 158.2 L 903.8 158.2 L 930.0 155.9" fill="none" stroke="#f0442e" stroke-width="4" stroke-linecap="round" stroke-linejoin="round"/>
    <circle cx="275.3" cy="223.1" r="5" fill="#ffffff" stroke="#f0442e" stroke-width="3"/>
    <circle cx="930.0" cy="155.9" r="5" fill="#f0442e" stroke="#ffffff" stroke-width="2"/>
    <line x1="92.0" y1="450" x2="92.0" y2="457" stroke="#24292f" stroke-width="1.5"/><text x="92.0" y="478" text-anchor="middle" fill="#24292f" font-size="13">Jul 2026</text><line x1="222.9" y1="450" x2="222.9" y2="457" stroke="#24292f" stroke-width="1.5"/><text x="222.9" y="478" text-anchor="middle" fill="#24292f" font-size="13">Jul 2026</text><line x1="380.1" y1="450" x2="380.1" y2="457" stroke="#24292f" stroke-width="1.5"/><text x="380.1" y="478" text-anchor="middle" fill="#24292f" font-size="13">Aug 2026</text><line x1="511.0" y1="450" x2="511.0" y2="457" stroke="#24292f" stroke-width="1.5"/><text x="511.0" y="478" text-anchor="middle" fill="#24292f" font-size="13">Aug 2026</text><line x1="641.9" y1="450" x2="641.9" y2="457" stroke="#24292f" stroke-width="1.5"/><text x="641.9" y="478" text-anchor="middle" fill="#24292f" font-size="13">Aug 2026</text><line x1="799.1" y1="450" x2="799.1" y2="457" stroke="#24292f" stroke-width="1.5"/><text x="799.1" y="478" text-anchor="middle" fill="#24292f" font-size="13">Aug 2026</text><line x1="930.0" y1="450" x2="930.0" y2="457" stroke="#24292f" stroke-width="1.5"/><text x="930.0" y="478" text-anchor="middle" fill="#24292f" font-size="13">Aug 2026</text>
    <text x="511.0" y="530" text-anchor="middle" font-size="15">Date</text>
    <text x="25" y="279.0" text-anchor="middle" font-size="15" transform="rotate(-90 25 279.0)">Package downloads</text>
    <g>
      <rect x="110" y="125" width="292" height="76" rx="5" fill="#ffffff" stroke="#24292f" stroke-width="1.5"/>
      <rect x="125" y="141" width="11" height="11" rx="2" fill="#f0442e"/>
      <text x="146" y="152" font-size="14" font-weight="600">Retro2512/CodexZero</text>
      <line x1="125" y1="176" x2="164" y2="176" stroke="#f0442e" stroke-width="3" stroke-dasharray="8 6"/>
      <text x="172" y="181" font-size="13">Estimated</text>
      <line x1="266" y1="176" x2="305" y2="176" stroke="#f0442e" stroke-width="3"/>
      <text x="313" y="181" font-size="13">Observed</text>
    </g>
  </g>
</svg>
