<svg xmlns="http://www.w3.org/2000/svg" width="960" height="560" viewBox="0 0 960 560" role="img">
  <title>CodexZero package download history</title>
  <desc>584 release package downloads as of 2026-10-01T13:26:48Z. Dashed launch-period values are estimated from release timing and repository traffic. Solid values are observed daily totals. Checksum downloads are excluded.</desc>
  <rect width="960" height="560" rx="12" fill="#ffffff"/>
  <g font-family="-apple-system,BlinkMacSystemFont,Segoe UI,sans-serif" fill="#24292f">
    <text x="480.0" y="47" text-anchor="middle" font-size="25" font-weight="650">Download history</text>
    <text x="930" y="48" text-anchor="end" font-size="19" font-weight="650">584 total</text>
    <line x1="92" y1="450.0" x2="930" y2="450.0" stroke="#e1e4e8" stroke-width="1"/><text x="78" y="455.0" text-anchor="end" fill="#24292f" font-size="14">0</text><line x1="92" y1="336.0" x2="930" y2="336.0" stroke="#e1e4e8" stroke-width="1"/><text x="78" y="341.0" text-anchor="end" fill="#24292f" font-size="14">200</text><line x1="92" y1="222.0" x2="930" y2="222.0" stroke="#e1e4e8" stroke-width="1"/><text x="78" y="227.0" text-anchor="end" fill="#24292f" font-size="14">400</text><line x1="92" y1="108.0" x2="930" y2="108.0" stroke="#e1e4e8" stroke-width="1"/><text x="78" y="113.0" text-anchor="end" fill="#24292f" font-size="14">600</text>
    <line x1="92" y1="108" x2="92" y2="450" stroke="#24292f" stroke-width="2"/>
    <line x1="92" y1="450" x2="930" y2="450" stroke="#24292f" stroke-width="2"/>
    <path d="M 92.0 450.0 L 104.0 412.4 L 115.9 391.3 L 127.9 378.2 L 139.9 375.3 L 151.9 359.4 L 163.8 345.1 L 175.8 336.6" fill="none" stroke="#f0442e" stroke-width="3.5" stroke-dasharray="9 7" stroke-linecap="round" stroke-linejoin="round"/><path d="M 175.8 336.6 L 187.8 330.3 L 199.7 322.9 L 211.7 321.2 L 223.7 318.3 L 235.7 318.3 L 247.6 318.3 L 259.6 317.8 L 271.6 317.8 L 283.5 312.6 L 295.5 312.1 L 307.5 310.9 L 319.5 310.9 L 331.4 310.4 L 343.4 310.4 L 355.4 310.4 L 367.3 309.2 L 379.3 309.2 L 391.3 308.6 L 403.3 308.6 L 415.2 308.1 L 427.2 306.4 L 439.2 305.2 L 451.1 304.1 L 463.1 304.1 L 475.1 302.9 L 487.1 302.9 L 499.0 301.8 L 511.0 301.8 L 523.0 301.2 L 534.9 301.2 L 546.9 300.7 L 558.9 300.1 L 570.9 300.1 L 582.8 299.5 L 594.8 298.9 L 606.8 296.7 L 618.7 296.7 L 630.7 296.1 L 642.7 292.7 L 654.7 290.4 L 666.6 289.8 L 678.6 289.3 L 690.6 288.1 L 702.5 288.1 L 714.5 287.0 L 726.5 285.3 L 738.5 285.3 L 750.4 284.7 L 762.4 284.7 L 774.4 284.7 L 786.3 284.7 L 798.3 284.1 L 810.3 280.7 L 822.3 230.0 L 834.2 203.8 L 846.2 186.7 L 858.2 183.2 L 870.1 164.4 L 882.1 153.6 L 894.1 146.2 L 906.1 140.5 L 918.0 137.6 L 930.0 117.1" fill="none" stroke="#f0442e" stroke-width="4" stroke-linecap="round" stroke-linejoin="round"/>
    <circle cx="175.8" cy="336.6" r="5" fill="#ffffff" stroke="#f0442e" stroke-width="3"/>
    <circle cx="930.0" cy="117.1" r="5" fill="#f0442e" stroke="#ffffff" stroke-width="2"/>
    <line x1="92.0" y1="450" x2="92.0" y2="457" stroke="#24292f" stroke-width="1.5"/><text x="92.0" y="478" text-anchor="middle" fill="#24292f" font-size="13">Jul 2026</text><line x1="235.7" y1="450" x2="235.7" y2="457" stroke="#24292f" stroke-width="1.5"/><text x="235.7" y="478" text-anchor="middle" fill="#24292f" font-size="13">Aug 2026</text><line x1="367.3" y1="450" x2="367.3" y2="457" stroke="#24292f" stroke-width="1.5"/><text x="367.3" y="478" text-anchor="middle" fill="#24292f" font-size="13">Aug 2026</text><line x1="511.0" y1="450" x2="511.0" y2="457" stroke="#24292f" stroke-width="1.5"/><text x="511.0" y="478" text-anchor="middle" fill="#24292f" font-size="13">Aug 2026</text><line x1="654.7" y1="450" x2="654.7" y2="457" stroke="#24292f" stroke-width="1.5"/><text x="654.7" y="478" text-anchor="middle" fill="#24292f" font-size="13">Sep 2026</text><line x1="786.3" y1="450" x2="786.3" y2="457" stroke="#24292f" stroke-width="1.5"/><text x="786.3" y="478" text-anchor="middle" fill="#24292f" font-size="13">Sep 2026</text><line x1="930.0" y1="450" x2="930.0" y2="457" stroke="#24292f" stroke-width="1.5"/><text x="930.0" y="478" text-anchor="middle" fill="#24292f" font-size="13">Oct 2026</text>
    <text x="511.0" y="530" text-anchor="middle" font-size="15">Date</text>
    <text x="25" y="279.0" text-anchor="middle" font-size="15" transform="rotate(-90 25 279.0)">Package downloads</text>
    <g>
      <rect x="110" y="125" width="292" height="76" rx="5" fill="#ffffff" stroke="#24292f" stroke-width="1.5"/>
      <rect x="125" y="141" width="11" height="11" rx="2" fill="#f0442e"/>
      <text x="146" y="152" font-size="14" font-weight="600">Retro2512/CodexZero</text>
      <line x1="125" y1="176" x2="164" y2="176" stroke="#f0442e" stroke-width="3" stroke-dasharray="8 6"/>
      <text x="172" y="181" font-size="13">Estimated</text>
      <line x1="266" y1="176" x2="305" y2="176" stroke="#f0442e" stroke-width="3"/>
      <text x="313" y="181" font-size="13">Observed</text>
    </g>
  </g>
</svg>
