<svg xmlns="http://www.w3.org/2000/svg" width="960" height="560" viewBox="0 0 960 560" role="img">
  <title>CodexZero package download history</title>
  <desc>248 release package downloads as of 2026-08-18T07:07:38Z. Dashed launch-period values are estimated from release timing and repository traffic. Solid values are observed daily totals. Checksum downloads are excluded.</desc>
  <rect width="960" height="560" rx="12" fill="#ffffff"/>
  <g font-family="-apple-system,BlinkMacSystemFont,Segoe UI,sans-serif" fill="#24292f">
    <text x="480.0" y="47" text-anchor="middle" font-size="25" font-weight="650">Download history</text>
    <text x="930" y="48" text-anchor="end" font-size="19" font-weight="650">248 total</text>
    <line x1="92" y1="450.0" x2="930" y2="450.0" stroke="#e1e4e8" stroke-width="1"/><text x="78" y="455.0" text-anchor="end" fill="#24292f" font-size="14">0</text><line x1="92" y1="336.0" x2="930" y2="336.0" stroke="#e1e4e8" stroke-width="1"/><text x="78" y="341.0" text-anchor="end" fill="#24292f" font-size="14">100</text><line x1="92" y1="222.0" x2="930" y2="222.0" stroke="#e1e4e8" stroke-width="1"/><text x="78" y="227.0" text-anchor="end" fill="#24292f" font-size="14">200</text><line x1="92" y1="108.0" x2="930" y2="108.0" stroke="#e1e4e8" stroke-width="1"/><text x="78" y="113.0" text-anchor="end" fill="#24292f" font-size="14">300</text>
    <line x1="92" y1="108" x2="92" y2="450" stroke="#24292f" stroke-width="2"/>
    <line x1="92" y1="450" x2="930" y2="450" stroke="#24292f" stroke-width="2"/>
    <path d="M 92.0 450.0 L 124.2 374.8 L 156.5 332.6 L 188.7 306.4 L 220.9 300.7 L 253.2 268.7 L 285.4 240.2 L 317.6 223.1" fill="none" stroke="#f0442e" stroke-width="3.5" stroke-dasharray="9 7" stroke-linecap="round" stroke-linejoin="round"/><path d="M 317.6 223.1 L 349.8 210.6 L 382.1 195.8 L 414.3 192.4 L 446.5 186.7 L 478.8 186.7 L 511.0 186.7 L 543.2 185.5 L 575.5 185.5 L 607.7 175.3 L 639.9 174.1 L 672.2 171.8 L 704.4 171.8 L 736.6 170.7 L 768.8 170.7 L 801.1 170.7 L 833.3 168.4 L 865.5 168.4 L 897.8 167.3 L 930.0 167.3" fill="none" stroke="#f0442e" stroke-width="4" stroke-linecap="round" stroke-linejoin="round"/>
    <circle cx="317.6" cy="223.1" r="5" fill="#ffffff" stroke="#f0442e" stroke-width="3"/>
    <circle cx="930.0" cy="167.3" r="5" fill="#f0442e" stroke="#ffffff" stroke-width="2"/>
    <line x1="92.0" y1="450" x2="92.0" y2="457" stroke="#24292f" stroke-width="1.5"/><text x="92.0" y="478" text-anchor="middle" fill="#24292f" font-size="13">Jul 23</text><line x1="220.9" y1="450" x2="220.9" y2="457" stroke="#24292f" stroke-width="1.5"/><text x="220.9" y="478" text-anchor="middle" fill="#24292f" font-size="13">Jul 27</text><line x1="382.1" y1="450" x2="382.1" y2="457" stroke="#24292f" stroke-width="1.5"/><text x="382.1" y="478" text-anchor="middle" fill="#24292f" font-size="13">Aug 1</text><line x1="511.0" y1="450" x2="511.0" y2="457" stroke="#24292f" stroke-width="1.5"/><text x="511.0" y="478" text-anchor="middle" fill="#24292f" font-size="13">Aug 5</text><line x1="639.9" y1="450" x2="639.9" y2="457" stroke="#24292f" stroke-width="1.5"/><text x="639.9" y="478" text-anchor="middle" fill="#24292f" font-size="13">Aug 9</text><line x1="801.1" y1="450" x2="801.1" y2="457" stroke="#24292f" stroke-width="1.5"/><text x="801.1" y="478" text-anchor="middle" fill="#24292f" font-size="13">Aug 14</text><line x1="930.0" y1="450" x2="930.0" y2="457" stroke="#24292f" stroke-width="1.5"/><text x="930.0" y="478" text-anchor="middle" fill="#24292f" font-size="13">Aug 18</text>
    <text x="511.0" y="530" text-anchor="middle" font-size="15">Date</text>
    <text x="25" y="279.0" text-anchor="middle" font-size="15" transform="rotate(-90 25 279.0)">Package downloads</text>
    <g>
      <rect x="110" y="125" width="292" height="76" rx="5" fill="#ffffff" stroke="#24292f" stroke-width="1.5"/>
      <rect x="125" y="141" width="11" height="11" rx="2" fill="#f0442e"/>
      <text x="146" y="152" font-size="14" font-weight="600">Retro2512/CodexZero</text>
      <line x1="125" y1="176" x2="164" y2="176" stroke="#f0442e" stroke-width="3" stroke-dasharray="8 6"/>
      <text x="172" y="181" font-size="13">Estimated</text>
      <line x1="266" y1="176" x2="305" y2="176" stroke="#f0442e" stroke-width="3"/>
      <text x="313" y="181" font-size="13">Observed</text>
    </g>
  </g>
</svg>
